<?xml version="1.0" encoding="UTF-8" standalone="no"?>
<svg
   xmlns:dc="http://purl.org/dc/elements/1.1/"
   xmlns:cc="http://creativecommons.org/ns#"
   xmlns:rdf="http://www.w3.org/1999/02/22-rdf-syntax-ns#"
   xmlns:svg="http://www.w3.org/2000/svg"
   xmlns="http://www.w3.org/2000/svg"
   width="100%"
   height="100%"
   viewBox="-5 -1 75 75"
   version="1.1"
   xml:space="preserve"
   style="fill-rule:evenodd;clip-rule:evenodd;stroke-linecap:round;stroke-linejoin:round;stroke-miterlimit:2;"
   id="svg19">
  <metadata
   id="metadata25">
    <rdf:RDF>
      <cc:Work
   rdf:about="">
        <dc:format>image/svg+xml</dc:format>

        <dc:type
   rdf:resource="http://purl.org/dc/dcmitype/StillImage" />

      </cc:Work>

    </rdf:RDF>

  </metadata>

  <defs
   id="defs23" />

  
  <path
   d="M31.952,49.751l0,-2.12c0,-4.982 1.796,-9.796 5.059,-13.561c0.381,-0.439 0.62,-0.716 0.62,-0.716"
   style="fill:none;stroke:#000000;stroke-width:1.5px;"
   id="path3" />

  <path
   d="M31.952,45.207c0,0 -0.158,-1.426 -0.33,-2.973c-0.276,-2.481 -1.42,-4.783 -3.231,-6.5c-2.419,-2.293 -5.525,-5.238 -5.525,-5.238"
   style="fill:none;stroke:#000000;stroke-width:1.5px;"
   id="path5" />

  <path
   d="M29.598,36.878c0,0 1.145,-4.133 -1.053,-7.572c-1.554,-2.431 -7.346,-3.885 -10.606,-4.528c-0.596,-0.117 -1.213,0.041 -1.68,0.43c-0.467,0.389 -0.733,0.968 -0.726,1.576c0.055,2.422 0.664,6.237 3.547,9.337c4.608,4.954 8.708,3.029 8.708,3.029"
   style="fill:none;stroke:#000000;stroke-width:1.5px;"
   id="path7" />

  <path
   d="M34.249,37.257c0,0 -1.437,-3.064 -0.181,-6.03c0.827,-1.954 4.627,-3.733 7.125,-4.72c0.585,-0.231 1.244,-0.176 1.782,0.149c0.538,0.324 0.895,0.881 0.964,1.506c0.183,1.898 0.038,4.61 -1.607,7.116c-2.93,4.463 -6.374,3.507 -6.374,3.507"
   style="fill:none;stroke:#000000;stroke-width:1.5px;"
   id="path9" />

  <path
   d="M26.786,34.212l-4.336,0"
   style="fill:none;stroke:#000000;stroke-width:1.5px;"
   id="path11" />

  <path
   d="M42.5,48.362l-1,1.059"
   style="fill:none;stroke:#000000;stroke-width:1.5px;"
   id="path13" />

  <path
   d="M37.631,53.517l-5.631,5.963l-21.681,-22.956c-5.394,-5.712 -5.136,-14.727 0.575,-20.121c5.711,-5.394 14.727,-5.136 20.12,0.575l0.986,1.043l0.986,-1.043c5.393,-5.711 14.409,-5.969 20.12,-0.575c5.711,5.394 5.969,14.409 0.575,20.121l-7.77,8.227"
   style="fill:none;stroke:#000000;stroke-width:1.5px;"
   id="path15" />

  <path
   d="M50,18.751c0,0 4.389,2.318 4,10"
   style="fill:none;stroke:#000000;stroke-width:1.5px;"
   id="path17" />

</svg>
