<?xml version="1.0" encoding="utf-8"?>
<!-- Generator: Adobe Illustrator 24.3.0, SVG Export Plug-In . SVG Version: 6.00 Build 0)  -->
<svg version="1.1" id="Layer_1" xmlns="http://www.w3.org/2000/svg" xmlns:xlink="http://www.w3.org/1999/xlink" x="0px" y="0px"
	 viewBox="0 0 80 80" enable-background="new 0 0 80 80" xml:space="preserve">
<g>
	<path fill="#000000" d="M63.273,50.5c0.401,0,0.727-0.324,0.727-0.727V40c0-0.402-0.326-0.727-0.727-0.727H40
		c-0.401,0-0.727,0.324-0.727,0.727v23.273c0,0.4,0.326,0.727,0.727,0.727h23.273C63.674,64,64,63.674,64,63.273v-9.621
		c0-0.4-0.326-0.727-0.727-0.727c-0.402,0-0.728,0.326-0.728,0.727v8.893H40.728V40.727h5.818v3.615
		c0,0.402,0.326,0.729,0.728,0.729c0.401,0,0.727-0.326,0.727-0.729v-3.615h7.273v6.377l-3.341-1.486
		c-0.188-0.084-0.403-0.084-0.591,0l-4.363,1.94c-0.367,0.164-0.532,0.594-0.37,0.961c0.121,0.271,0.387,0.432,0.666,0.432
		c0.098,0,0.199-0.02,0.295-0.062l4.068-1.808l4.068,1.808c0.224,0.1,0.485,0.08,0.692-0.055c0.207-0.135,0.331-0.363,0.331-0.609
		v-7.496h5.818v9.047C62.545,50.176,62.871,50.5,63.273,50.5z"/>
	<path fill="#000000" d="M54.061,58.869c-0.401,0-0.727,0.324-0.727,0.726c0,0.402,0.326,0.727,0.727,0.727h5.333
		c0.401,0,0.727-0.324,0.727-0.727c0-0.402-0.326-0.726-0.727-0.726H54.061z"/>
	<path fill="#000000" d="M35.61,59.768c0.144,0.17,0.349,0.258,0.555,0.258c0.166,0,0.333-0.057,0.47-0.174
		c0.306-0.26,0.344-0.719,0.083-1.025c-1.472-1.732-3.32-4.197-4.879-7.111c1.412-0.551,2.881-0.969,4.401-1.223
		c0.396-0.068,0.663-0.443,0.597-0.838c-0.067-0.396-0.445-0.664-0.838-0.598c-1.666,0.279-3.275,0.74-4.818,1.351
		c-0.378-0.789-0.74-1.598-1.053-2.439c-0.14-0.377-0.561-0.568-0.935-0.428c-0.376,0.141-0.568,0.559-0.428,0.936
		c0.323,0.867,0.694,1.699,1.083,2.514c-2.327,1.09-4.48,2.543-6.381,4.348c-3.593-3.875-5.798-9-5.978-14.611h9.682
		c0.043,1.262,0.192,2.547,0.458,3.836c0.071,0.344,0.373,0.58,0.711,0.58c0.049,0,0.099-0.004,0.148-0.016
		c0.393-0.08,0.647-0.465,0.565-0.859c-0.246-1.189-0.385-2.377-0.428-3.541h7.496c0.402,0,0.727-0.324,0.727-0.727
		c0-0.402-0.326-0.727-0.727-0.727h-7.486c0.13-3.482,1.171-6.779,2.559-9.686c2.595,1.018,5.331,1.553,8.08,1.637v4.897
		c0,0.4,0.326,0.727,0.727,0.727c0.402,0,0.728-0.326,0.728-0.727v-4.895c2.752-0.084,5.491-0.621,8.086-1.647
		c0.992,2.066,1.803,4.307,2.234,6.67c0.072,0.396,0.455,0.66,0.846,0.586c0.396-0.072,0.657-0.451,0.585-0.846
		c-0.456-2.5-1.303-4.85-2.33-7.008c2.288-1.07,4.45-2.498,6.375-4.322c2.969,3.195,4.977,7.211,5.71,11.58
		c0.06,0.355,0.368,0.607,0.716,0.607c0.041,0,0.081-0.004,0.121-0.01c0.396-0.066,0.664-0.441,0.597-0.838
		c-1.138-6.781-5.156-12.76-11.025-16.404c-0.34-0.211-0.79-0.107-1.001,0.234c-0.211,0.342-0.107,0.789,0.234,1.002
		c1.315,0.816,2.529,1.762,3.633,2.809c-1.792,1.695-3.822,3.045-6,4.061c-2.484-4.703-5.73-8.311-7.584-10.156
		c2.208,0.185,4.359,0.682,6.417,1.502c0.373,0.148,0.796-0.033,0.945-0.406c0.148-0.373-0.033-0.795-0.406-0.943
		C46.056,16.57,43.068,16,40,16c-6.466,0-12.529,2.533-17.074,7.133c-0.282,0.285-0.279,0.744,0.005,1.027l0.07,0.07
		c2.04,2.039,4.367,3.607,6.842,4.758c-1.483,3.117-2.542,6.588-2.666,10.285h-9.696c0.139-4.375,1.508-8.564,4.012-12.154
		c0.229-0.328,0.148-0.783-0.181-1.012c-0.33-0.23-0.783-0.15-1.013,0.18C17.487,30.322,16,35.064,16,40
		c0,11.77,8.411,21.723,20,23.668c0.041,0.006,0.081,0.01,0.121,0.01c0.349,0,0.657-0.252,0.717-0.607
		c0.066-0.395-0.201-0.77-0.597-0.838c-4.569-0.766-8.6-2.869-11.754-5.857c1.791-1.697,3.819-3.062,6.012-4.084
		C32.129,55.363,34.069,57.953,35.61,59.768z M40.728,18.414c1.729,1.719,4.975,5.281,7.435,9.879
		c-2.348,0.912-4.855,1.412-7.435,1.494V18.414z M24.483,23.643c4.03-3.828,9.234-5.978,14.79-6.154v12.299
		c-2.578-0.082-5.083-0.58-7.43-1.488c1.699-3.197,3.745-5.836,5.288-7.604c0.264-0.303,0.233-0.762-0.07-1.027
		c-0.303-0.264-0.761-0.232-1.026,0.07c-1.871,2.143-3.899,4.854-5.547,7.967C28.309,26.69,26.276,25.34,24.483,23.643z"/>
</g>
</svg>
