<?xml version="1.0" encoding="UTF-8"?>
<!DOCTYPE svg PUBLIC "-//W3C//DTD SVG 1.1//EN" "http://www.w3.org/Graphics/SVG/1.1/DTD/svg11.dtd">
<!-- Creator: CorelDRAW -->
<svg xmlns="http://www.w3.org/2000/svg" xml:space="preserve" width="2048px" height="2048px" style="shape-rendering:geometricPrecision; text-rendering:geometricPrecision; image-rendering:optimizeQuality; fill-rule:evenodd; clip-rule:evenodd"
viewBox="-100 -100 2348 2348"
 xmlns:xlink="http://www.w3.org/1999/xlink">
 <defs>
  <style type="text/css">
   <![CDATA[
    .fil1 {fill:none}
    .fil0 {fill:#000000;fill-rule:nonzero}
   ]]>
  </style>
 </defs>
 <g id="Layer_x0020_1">
  <metadata id="CorelCorpID_0Corel-Layer"/>
  <g id="_559825704">
   <path id="_559825248" class="fil0" d="M1024 255.999c139.074,0 264.986,56.3752 356.129,147.517 91.1434,91.1422 147.517,217.054 147.517,356.127 0,0.466536 -0.0885827,4.34055 -0.253937,11.1697 -0.0401575,1.6689 -0.0814961,3.22323 -0.125197,4.67244 0.249213,1.61102 0.380315,3.26103 0.380315,4.94292 0,2.8311 -0.369685,5.57717 -1.05945,8.19095 -11.0362,118.6 -196.801,428.934 -339.203,666.826 -56.9434,95.1296 -106.824,178.455 -135.134,232.008l-28.2496 -14.8748 28.2898 14.9563c-8.25946,15.6236 -27.6225,21.5929 -43.2461,13.3335 -6.58819,-3.48307 -11.4591,-8.93977 -14.2713,-15.2587 -28.4717,-53.6079 -77.8571,-136.112 -134.152,-230.156 -142.403,-237.894 -328.172,-548.235 -339.209,-666.837 -1.15394,-4.34528 -1.35236,-8.80867 -0.679134,-13.1102 -0.0437008,-1.45394 -0.0850394,-3.01772 -0.125197,-4.6937 -0.165354,-6.82914 -0.253937,-10.7032 -0.253937,-11.1697 0,-139.074 56.3741,-264.985 147.517,-356.127 91.1422,-91.1422 217.055,-147.517 356.129,-147.517zm310.878 192.768c-79.5568,-79.5568 -189.47,-128.766 -310.878,-128.766 -121.408,0 -231.321,49.2095 -310.878,128.766 -79.5579,79.5568 -128.766,189.469 -128.766,310.877l0.00354331 9.66969c0.046063,1.97244 0.129921,4.42441 0.248032,7.29095 0.121654,1.02402 0.197244,2.06339 0.219685,3.11457l0.0141732 0.236221 -0.0106299 0 0.00590552 0.473622 -0.00944883 0.696851c5.7189,98.9233 189.832,406.507 330.546,641.579 41.8477,69.9095 79.9264,133.523 108.628,183.891 28.7032,-50.3693 66.7831,-113.985 108.632,-183.899 140.397,-234.54 323.985,-541.254 330.49,-640.888 -0.0106299,-0.814961 0.00826772,-1.6311 0.0602363,-2.44725l0.0106299 -0.323622 0.0141732 0.0011811c0.0377953,-0.493701 0.0838583,-0.987402 0.144095,-1.47992 0.138189,-3.27992 0.236221,-6.05788 0.288189,-8.24528l0.00354331 -9.66969c0,-121.408 -49.2083,-231.32 -128.766,-310.877z"/>
   <path id="_559825488" class="fil0" d="M1024 543.975c59.5512,0 113.47,24.1418 152.499,63.1713 39.0296,39.0296 63.1713,92.9469 63.1713,152.498 0,59.5512 -24.1418,113.47 -63.1713,152.499 -39.0296,39.0296 -92.9481,63.1713 -152.499,63.1713 -59.5512,0 -113.47,-24.1418 -152.499,-63.1713 -39.0296,-39.0296 -63.1713,-92.9481 -63.1713,-152.499 0,-59.5512 24.1418,-113.469 63.1713,-152.498 39.0296,-39.0296 92.9481,-63.1713 152.499,-63.1713zm107.249 108.422c-27.4441,-27.4441 -65.3634,-44.4201 -107.249,-44.4201 -41.8855,0 -79.8048,16.976 -107.249,44.4201 -27.4441,27.4441 -44.4201,65.3623 -44.4201,107.248 0,41.8855 16.976,79.8048 44.4201,107.249 27.4441,27.4441 65.3634,44.4201 107.249,44.4201 41.8855,0 79.8048,-16.976 107.249,-44.4201 27.4441,-27.4441 44.4201,-65.3634 44.4201,-107.249 0,-41.8855 -16.976,-79.8036 -44.4201,-107.248z"/>
   <path id="_559825080" class="fil0" d="M1101.5 1511.77c119.832,4.17402 225.917,17.9079 302.15,37.6229 88.5969,22.9134 142.141,58.1315 142.141,101.769 0,47.0835 -64.4245,84.9426 -168.579,108.087 -91.0666,20.237 -215.999,32.7544 -353.208,32.7544 -137.209,0 -262.141,-12.5173 -353.208,-32.7544 -104.154,-23.1449 -168.579,-61.004 -168.579,-108.087 0,-43.637 53.5441,-78.8552 142.141,-101.769 76.8131,-19.865 183.932,-33.6603 304.888,-37.7185l-0.00354331 -0.108662c12.8114,-0.42874 24.1158,6.73583 29.5855,17.4449 15.5232,26.237 29.4236,49.9595 40.9548,70.0843 1.42441,2.48622 2.83229,4.95118 4.22244,7.39253 1.39016,-2.44134 2.79803,-4.9063 4.22244,-7.39253 11.7815,-20.5618 26.0362,-44.8796 41.9681,-71.7969l27.4996 16.2496 -27.5374 -16.2992c6.66024,-11.2536 19.1398,-16.9323 31.3418,-15.4784zm286.151 99.3733c-68.5985,-17.7402 -163.699,-30.3827 -272.105,-35.0008 -11.0539,18.7736 -21.6732,36.9969 -31.8177,54.7028 -12.1606,21.2232 -22.4941,39.7122 -30.4925,54.7619 -2.81221,6.32126 -7.68308,11.7803 -14.2736,15.2646 -15.6236,8.25946 -34.9866,2.29016 -43.2461,-13.3335l28.2898 -14.9563 -28.2496 14.8748c-8.12717,-15.3732 -18.8091,-34.5107 -31.4729,-56.6115 -10.1445,-17.7059 -20.7638,-35.9292 -31.8177,-54.7028 -108.406,4.61811 -203.508,17.2606 -272.107,35.0008 -58.6772,15.1748 -94.1387,29.4992 -94.1387,40.0181 0,13.0264 45.2197,29.5902 118.328,45.8363 86.2005,19.1563 206.164,31.004 339.457,31.004 133.293,0 253.257,-11.8476 339.457,-31.004 73.1079,-16.2461 118.328,-32.8099 118.328,-45.8363 0,-10.5189 -35.4614,-24.8433 -94.1387,-40.0181z"/>
  </g>
 </g>
 <rect class="fil1" width="2048" height="2048"/>
</svg>
