<?xml version="1.0" encoding="utf-8"?>
<!-- Generator: Adobe Illustrator 16.0.0, SVG Export Plug-In . SVG Version: 6.00 Build 0)  -->
<!DOCTYPE svg PUBLIC "-//W3C//DTD SVG 1.1//EN" "http://www.w3.org/Graphics/SVG/1.1/DTD/svg11.dtd">
<svg version="1.1" id="Layer_1" xmlns="http://www.w3.org/2000/svg" xmlns:xlink="http://www.w3.org/1999/xlink" x="0px" y="0px"
	 width="168px" height="168px" viewBox="-20 -20 168 168">
<g>
	<g>
		<g>
			<g>
				<path fill="#000000" d="M64,110.989c-0.546,0-1.068-0.224-1.445-0.617l-62-64.827c-0.554-0.578-0.708-1.432-0.394-2.168
					C0.476,42.641,1.199,42.163,2,42.163h124c0.801,0,1.524,0.478,1.839,1.214s0.16,1.59-0.394,2.168l-62,64.827
					C65.068,110.766,64.546,110.989,64,110.989z M6.68,46.163L64,106.096l57.319-59.933H6.68z"/>
			</g>
			<g>
				<path fill="#000000" d="M64,110.989L64,110.989c-0.804,0-1.53-0.481-1.843-1.223L34.826,44.939l3.686-1.554L64,103.842
					l22.347-52.996l3.686,1.554l-24.189,57.367C65.53,110.508,64.805,110.989,64,110.989z"/>
			</g>
		</g>
		<g>
			<g>
				<path fill="#000000" d="M126,46.351H2c-0.739,0-1.418-0.407-1.766-1.061c-0.347-0.652-0.306-1.443,0.106-2.057l17.062-25.34
					c0.372-0.552,0.994-0.883,1.659-0.883h89.883c0.666,0,1.287,0.331,1.659,0.884l17.055,25.34
					c0.413,0.613,0.453,1.404,0.106,2.057C127.418,45.943,126.739,46.351,126,46.351z M5.758,42.351h116.485l-14.362-21.34H20.126
					L5.758,42.351z"/>
			</g>
			<g>
				<polygon fill="#000000" points="38.036,45.811 35.302,42.891 62.633,17.295 65.367,17.295 85.76,36.391 83.025,39.311 
					64,21.495 				"/>
			</g>
			<g>
				
					<rect x="18.96" y="33.128" transform="matrix(0.5647 0.8253 -0.8253 0.5647 42.1075 -9.5799)" fill="#282D33" width="22.352" height="4"/>
			</g>
			<g>
				<path fill="#282D33" d="M126,46.351H91.563c-0.742,0-1.423-0.41-1.769-1.066c-0.347-0.656-0.301-1.45,0.118-2.063l17.338-25.34
					c0.373-0.545,0.99-0.871,1.65-0.871c0.666,0,1.332,0.331,1.704,0.884l17.055,25.34c0.413,0.613,0.453,1.404,0.106,2.057
					C127.418,45.943,126.739,46.351,126,46.351z M95.354,42.351h26.889L108.909,22.54L95.354,42.351z"/>
			</g>
		</g>
	</g>
</g>
</svg>
